<svg width="69" height="69" viewBox="0 0 69 69" fill="none" xmlns="http://www.w3.org/2000/svg">
<path d="M34.5 69C53.5538 69 69 53.5538 69 34.5C69 15.4462 53.5538 0 34.5 0C15.4462 0 0 15.4462 0 34.5C0 53.5538 15.4462 69 34.5 69Z" fill="url(#paint0_radial_844_279)"/>
<g clip-path="url(#clip0_844_279)">
<path d="M30.7187 18H20.4062C19.0793 18 18 19.0793 18 20.4062V26.5937C18 27.9207 19.0793 29.0001 20.4062 29.0001H30.7187C32.0457 29.0001 33.1251 27.9207 33.1251 26.5937V20.4062C33.1251 19.0793 32.0457 18 30.7187 18Z" fill="white"/>
<path d="M30.7187 31.3784H20.4062C19.0793 31.3784 18 32.4578 18 33.7848V48.2223C18 49.5492 19.0793 50.6285 20.4062 50.6285H30.7187C32.0457 50.6285 33.1251 49.5492 33.1251 48.2223V33.7848C33.1251 32.4578 32.0457 31.3784 30.7187 31.3784V31.3784Z" fill="white"/>
<path d="M48.5939 39.9999H38.2814C36.9543 39.9999 35.875 41.0792 35.875 42.4063V48.5938C35.875 49.9206 36.9543 51 38.2814 51H48.5939C49.9207 51 51.0001 49.9206 51.0001 48.5938V42.4063C51.0001 41.0792 49.9207 39.9999 48.5939 39.9999V39.9999Z" fill="white"/>
<path d="M48.5939 18H38.2814C36.9543 18 35.875 19.0793 35.875 20.4062V34.8437C35.875 36.1707 36.9543 37.2501 38.2814 37.2501H48.5939C49.9207 37.2501 51.0001 36.1707 51.0001 34.8437V20.4062C51.0001 19.0793 49.9207 18 48.5939 18V18Z" fill="white"/>
</g>
<defs>
<radialGradient id="paint0_radial_844_279" cx="0" cy="0" r="1" gradientUnits="userSpaceOnUse" gradientTransform="translate(3 6.5) rotate(31.3802) scale(82.5788)">
<stop offset="0.146" stop-color="#00DAB3"/>
<stop offset="0.575" stop-color="#1DAD93"/>
</radialGradient>
<clipPath id="clip0_844_279">
<rect width="33" height="33" fill="white" transform="translate(18 18)"/>
</clipPath>
</defs>
</svg>
